<?xml version="1.0" encoding="utf-8"?>
<!-- Generator: Adobe Illustrator 23.0.3, SVG Export Plug-In . SVG Version: 6.00 Build 0)  -->
<svg version="1.1" id="Layer_1" xmlns="http://www.w3.org/2000/svg" xmlns:xlink="http://www.w3.org/1999/xlink" x="0px" y="0px"
	 viewBox="0 0 969.6 560.4" style="enable-background:new 0 0 969.6 560.4;" xml:space="preserve">
<style type="text/css">
	.st0{fill:#005837;stroke:#FFFFFF;stroke-width:6;stroke-miterlimit:10;}
	.st1{fill:#FFFFFF;}
	.st2{fill:none;}
	.st3{font-family:'OpenSans-Bold';}
	.st4{font-size:225px;}
	.st5{font-family:'MuseoSans-500';}
	.st6{font-size:97px;}
	.st7{letter-spacing:5;}
	.st8{fill:#005837;}
	.st9{font-family:'MuseoSans-900';}
	.st10{font-size:165px;}
	.st11{letter-spacing:9;}
</style>
<image style="display:none;overflow:visible;enable-background:new    ;" width="1089" height="618" xlink:href="../../../CandidateRank-Frontend/public/cr-logo.png"  transform="matrix(1 0 0 1 21.8796 -19.3913)">
</image>
<circle class="st0" cx="269.7" cy="280.5" r="152.6"/>
<g>
	<path class="st1" d="M374.3,437.1c-30.6,19.8-66.1,30.3-102.8,30.3c-50.5,0-98-19.7-133.7-55.4s-55.4-83.2-55.4-133.7
		s19.7-98,55.4-133.7S221,89.2,271.5,89.2c37.3,0,73.4,10.8,104.3,31.3c20.6,13.6,38.1,30.9,51.8,51H512l0,0
		C471,79.4,378.8,15.2,271.5,15.2C126.2,15.2,8.4,133,8.4,278.3s117.8,263.1,263.1,263.1c104.6,0,194.9-61,237.3-149.4h-86.2
		C409.4,409.7,393.1,425,374.3,437.1z"/>
</g>
<rect x="182.1" y="190.2" class="st2" width="172.9" height="188.4"/>
<text transform="matrix(1 0 0 1 194.1824 361.1595)" class="st1 st3 st4">R</text>
<rect x="449.2" y="170.7" class="st2" width="511.8" height="71"/>
<text transform="matrix(1 0 0 1 449.1489 239.2107)" class="st1 st5 st6 st7">candidate</text>
<rect x="440.7" y="256.5" class="st2" width="511.8" height="129.6"/>
<text transform="matrix(1 0 0 1 440.6542 374.4531)" class="st8 st9 st10 st11">Rank</text>
</svg>
