<?xml version="1.0" encoding="utf-8"?>
<!-- Generator: Adobe Illustrator 23.0.3, SVG Export Plug-In . SVG Version: 6.00 Build 0)  -->
<svg version="1.1" id="Layer_1" xmlns="http://www.w3.org/2000/svg" xmlns:xlink="http://www.w3.org/1999/xlink" x="0px" y="0px"
	 viewBox="0 0 529.1 560.4" style="enable-background:new 0 0 529.1 560.4;" xml:space="preserve">
<style type="text/css">
	.st0{fill:#13A89E;}
	.st1{fill:#FFFFFF;}
	.st2{fill:none;}
	.st3{font-family:'OpenSans-Bold';}
	.st4{font-size:225px;}
</style>
<image style="display:none;overflow:visible;enable-background:new    ;" width="1089" height="618" xlink:href="../../../CandidateRank-Frontend/public/cr-logo.png"  transform="matrix(1 0 0 1 21.8796 -19.3913)">
</image>
<circle class="st0" cx="286.8" cy="280.5" r="152.6"/>
<g>
	<path class="st1" d="M391.4,437.1c-30.6,19.8-66.1,30.3-102.8,30.3c-50.5,0-98-19.7-133.7-55.4s-55.4-83.2-55.4-133.7
		s19.7-98,55.4-133.7s83.2-55.4,133.7-55.4c37.3,0,73.4,10.8,104.3,31.3c20.6,13.6,38.1,30.9,51.8,51h84.4l0,0
		c-41-92.1-133.2-156.3-240.5-156.3C143.3,15.2,25.5,133,25.5,278.3s117.8,263.1,263.1,263.1c104.6,0,194.9-61,237.3-149.4h-86.2
		C426.5,409.7,410.2,425,391.4,437.1z"/>
</g>
<rect x="199.2" y="190.2" class="st2" width="172.9" height="188.4"/>
<text transform="matrix(1 0 0 1 211.3324 361.1595)" class="st1 st3 st4">R</text>
</svg>
