<?xml version="1.0" encoding="utf-8"?>
<!-- Generator: Adobe Illustrator 23.0.3, SVG Export Plug-In . SVG Version: 6.00 Build 0)  -->
<svg version="1.1" id="Layer_1" xmlns="http://www.w3.org/2000/svg" xmlns:xlink="http://www.w3.org/1999/xlink" x="0px" y="0px"
	 viewBox="0 0 969.6 560.4" style="enable-background:new 0 0 969.6 560.4;" xml:space="preserve">
<style type="text/css">
	.st0{fill:#FFFFFF;}
	.st1{fill:none;}
	.st2{font-family:'MuseoSans-500';}
	.st3{font-size:97px;}
	.st4{letter-spacing:4;}
	.st5{font-family:'MuseoSans-900';}
	.st6{font-size:165px;}
	.st7{letter-spacing:8;}
</style>
<image style="display:none;overflow:visible;enable-background:new    ;" width="1089" height="618" xlink:href="../../../CandidateRank-Frontend/public/cr-logo.png"  transform="matrix(1 0 0 1 21.8796 -19.3913)">
</image>
<g>
	<path class="st0" d="M374.4,437.1c-30.6,19.8-66.1,30.3-102.8,30.3c-50.5,0-98-19.7-133.7-55.4s-55.4-83.2-55.4-133.7
		s19.7-98,55.4-133.7s83.2-55.4,133.7-55.4c37.3,0,73.4,10.8,104.3,31.3c20.6,13.6,38.1,30.9,51.8,51h84.4l0,0
		c-41-92.1-133.2-156.3-240.5-156.3C126.3,15.2,8.5,133,8.5,278.3s117.8,263.1,263.1,263.1c104.6,0,194.9-61,237.3-149.4h-86.2
		C409.5,409.7,393.2,425,374.4,437.1z"/>
</g>
<rect x="182.2" y="190.2" class="st1" width="172.9" height="188.4"/>
<g>
	<path class="st0" d="M269.8,127.9c-84.3,0-152.6,68.3-152.6,152.6s68.3,152.6,152.6,152.6s152.6-68.3,152.6-152.6
		S354.1,127.9,269.8,127.9z M305.1,361.2l-38.3-61.6h-18.1v61.6h-34.1V200.5h46.8c21.8,0,38,4,48.4,11.9c10.5,7.9,15.7,20,15.7,36.2
		c0,9.4-2.6,17.9-7.8,25.2c-5.2,7.4-12.6,13.1-22.1,17.3c24.2,36.1,39.9,59.4,47.2,70h-37.7V361.2z"/>
	<path class="st0" d="M283.3,233.3c-5.2-3.2-13.3-4.8-24.3-4.8h-10.3v43.4h11c10.8,0,18.7-1.8,23.8-5.4c5.1-3.6,7.7-9.2,7.7-16.9
		C291.1,241.9,288.5,236.5,283.3,233.3z"/>
</g>
<rect x="449.3" y="170.7" class="st1" width="511.8" height="71"/>
<text transform="matrix(1 0 0 1 449.2989 239.2107)" class="st0 st2 st3 st4">candidate</text>
<rect x="440.8" y="256.5" class="st1" width="511.8" height="129.6"/>
<text transform="matrix(1 0 0 1 440.8042 374.4531)" class="st0 st5 st6 st7">Rank</text>
</svg>
